999
dxfrw 0.5.11
0
SECTION
2
HEADER
9
$ACADVER
1
AC1009
9
$DWGCODEPAGE
3
ANSI_1252
9
$INSBASE
10
0
20
0
30
0
9
$EXTMIN
10
0
20
-2.48848229587e-14
30
0
9
$EXTMAX
10
101.6
20
101.6
30
0
9
$LIMMIN
10
0
20
0
9
$LIMMAX
10
420
20
297
9
$ORTHOMODE
70
0
9
$LTSCALE
40
1
9
$TEXTSTYLE
7
STANDARD
9
$CLAYER
8
0
9
$DIMASZ
40
2.5
9
$DIMLFAC
40
1
9
$DIMSCALE
40
1
9
$DIMEXO
40
0.625
9
$DIMEXE
40
1.25
9
$DIMTXT
40
2.5
9
$DIMTSZ
40
0
9
$DIMUNIT
70
2
9
$DIMSTYLE
2
STANDARD
9
$DIMGAP
40
0.625
9
$DIMTIH
70
0
9
$LUNITS
70
2
9
$LUPREC
70
4
9
$AUNITS
70
0
9
$AUPREC
70
2
9
$SNAPSTYLE
70
0
9
$PLIMMIN
10
0
20
0
9
$PLIMMAX
10
210
20
297
0
ENDSEC
0
SECTION
2
CLASSES
0
ENDSEC
0
SECTION
2
TABLES
0
TABLE
2
VPORT
70
1
0
VPORT
2
*ACTIVE
70
0
10
0
20
0
11
1
21
1
12
91
22
55.375
13
0
23
0
14
10
24
10
15
10
25
10
16
0
26
0
36
1
17
0
27
0
37
0
40
118
41
2.15889830508
42
50
43
0
44
0
50
0
51
0
71
0
72
100
73
1
74
3
75
0
76
1
77
0
78
0
0
ENDTAB
0
TABLE
2
LTYPE
70
4
0
LTYPE
2
BYBLOCK
70
0
3

72
65
73
0
40
0
0
LTYPE
2
BYLAYER
70
0
3

72
65
73
0
40
0
0
LTYPE
2
CONTINUOUS
70
0
3
Solid line
72
65
73
0
40
0
0
LTYPE
2
DOT
70
0
3
Dot . . . . . . . . . . . . . . . . . . . . . .
72
65
73
2
40
6.35
49
0
49
-6.35
0
LTYPE
2
DOT2
70
0
3
Dot (.5x) .....................................
72
65
73
2
40
3.175
49
0
49
-3.175
0
LTYPE
2
DOTX2
70
0
3
Dot (2x) .  .  .  .  .  .  .  .  .  .  .  .  .
72
65
73
2
40
12.7
49
0
49
-12.7
0
LTYPE
2
DASHED
70
0
3
Dot . . . . . . . . . . . . . . . . . . . . . .
72
65
73
2
40
19.05
49
12.7
49
-6.35
0
LTYPE
2
DASHED2
70
0
3
Dashed (.5x) _ _ _ _ _ _ _ _ _ _ _ _ _ _ _ _ _
72
65
73
2
40
9.525
49
6.35
49
-3.175
0
LTYPE
2
DASHEDX2
70
0
3
Dashed (2x) ____  ____  ____  ____  ____  ___
72
65
73
2
40
38.1
49
25.4
49
-12.7
0
LTYPE
2
DASHDOT
70
0
3
Dash dot __ . __ . __ . __ . __ . __ . __ . __
72
65
73
4
40
25.4
49
12.7
49
-6.35
49
0
49
-6.35
0
LTYPE
2
DASHDOT2
70
0
3
Dash dot (.5x) _._._._._._._._._._._._._._._.
72
65
73
4
40
12.7
49
6.35
49
-3.175
49
0
49
-3.175
0
LTYPE
2
DASHDOTX2
70
0
3
Dash dot (2x) ____  .  ____  .  ____  .  ___
72
65
73
4
40
50.8
49
25.4
49
-12.7
49
0
49
-12.7
0
LTYPE
2
DIVIDE
70
0
3
Divide ____ . . ____ . . ____ . . ____ . . ____
72
65
73
6
40
31.75
49
12.7
49
-6.35
49
0
49
-6.35
49
0
49
-6.35
0
LTYPE
2
DIVIDE2
70
0
3
Divide (.5x) __..__..__..__..__..__..__..__.._
72
65
73
6
40
15.875
49
6.35
49
-3.175
49
0
49
-3.175
49
0
49
-3.175
0
LTYPE
2
DIVIDEX2
70
0
3
Divide (2x) ________  .  .  ________  .  .  _
72
65
73
6
40
63.5
49
25.4
49
-12.7
49
0
49
-12.7
49
0
49
-12.7
0
LTYPE
2
BORDER
70
0
3
Border __ __ . __ __ . __ __ . __ __ . __ __ .
72
65
73
6
40
44.45
49
12.7
49
-6.35
49
12.7
49
-6.35
49
0
49
-6.35
0
LTYPE
2
BORDER2
70
0
3
Border (.5x) __.__.__.__.__.__.__.__.__.__.__.
72
65
73
6
40
22.225
49
6.35
49
-3.175
49
6.35
49
-3.175
49
0
49
-3.175
0
LTYPE
2
BORDERX2
70
0
3
Border (2x) ____  ____  .  ____  ____  .  ___
72
65
73
6
40
88.9
49
25.4
49
-12.7
49
25.4
49
-12.7
49
0
49
-12.7
0
LTYPE
2
CENTER
70
0
3
Center ____ _ ____ _ ____ _ ____ _ ____ _ ____
72
65
73
4
40
50.8
49
31.75
49
-6.35
49
6.35
49
-6.35
0
LTYPE
2
CENTER2
70
0
3
Center (.5x) ___ _ ___ _ ___ _ ___ _ ___ _ ___
72
65
73
4
40
28.575
49
19.05
49
-3.175
49
3.175
49
-3.175
0
LTYPE
2
CENTERX2
70
0
3
Center (2x) ________  __  ________  __  _____
72
65
73
4
40
101.6
49
63.5
49
-12.7
49
12.7
49
-12.7
0
ENDTAB
0
TABLE
2
LAYER
70
1
0
LAYER
2
0
70
0
62
7
6
CONTINUOUS
0
ENDTAB
0
TABLE
2
STYLE
70
3
0
STYLE
2
STANDARD
70
0
40
0
41
1
50
0
71
0
42
1
3
TXT
4

0
ENDTAB
0
TABLE
2
VIEW
70
0
0
ENDTAB
0
TABLE
2
UCS
70
0
0
ENDTAB
0
TABLE
2
APPID
70
1
0
APPID
2
ACAD
70
0
0
ENDTAB
0
TABLE
2
DIMSTYLE
70
1
0
DIMSTYLE
2
STANDARD
70
0
3

4

5

6

7

40
1
41
2.5
42
0.625
43
0.38
44
1.25
45
0
46
0
47
0
48
0
140
2.5
141
0.09
142
0
143
25.4
144
1
145
0
146
1
147
0.625
71
0
72
0
73
0
74
1
75
0
76
0
77
0
78
0
170
0
171
2
172
0
173
0
174
0
175
0
176
0
177
0
178
0
0
ENDTAB
0
ENDSEC
0
SECTION
2
BLOCKS
0
BLOCK
8
0
2
$MODEL_SPACE
70
0
10
0
20
0
30
0
3
$MODEL_SPACE
1

0
ENDBLK
8
0
0
BLOCK
8
0
2
$PAPER_SPACE
70
0
10
0
20
0
30
0
3
$PAPER_SPACE
1

0
ENDBLK
8
0
0
ENDSEC
0
SECTION
2
ENTITIES
0
LINE
5
31
8
0
6
BYLAYER
62
256
10
6.22120573967e-15
20
101.6
11
101.6
21
101.6
0
LINE
5
32
8
0
6
BYLAYER
62
256
10
101.6
20
-2.48848229587e-14
11
101.6
21
101.6
0
LINE
5
33
8
0
6
BYLAYER
62
256
10
0
20
0
11
6.22120573967e-15
21
101.6
0
LINE
5
34
8
0
6
BYLAYER
62
256
10
0
20
0
11
12.7
21
0
0
LINE
5
35
8
0
6
BYLAYER
62
256
10
12.7
20
0
11
101.6
21
0
0
LINE
5
36
8
0
6
BYLAYER
62
256
10
8.85
20
12.7
11
8.85
21
14.2
0
LINE
5
37
8
0
6
BYLAYER
62
256
10
3.85
20
14.2
11
8.85
21
14.2
0
LINE
5
38
8
0
6
BYLAYER
62
256
10
16.55
20
12.7
11
16.55
21
14.2
0
LINE
5
39
8
0
6
BYLAYER
62
256
10
21.55
20
12.7
11
21.55
21
14.2
0
LINE
5
3A
8
0
6
BYLAYER
62
256
10
16.55
20
14.2
11
21.55
21
14.2
0
LINE
5
3B
8
0
6
BYLAYER
62
256
10
29.25
20
12.7
11
29.25
21
14.2
0
LINE
5
3C
8
0
6
BYLAYER
62
256
10
34.25
20
12.7
11
34.25
21
14.2
0
LINE
5
3D
8
0
6
BYLAYER
62
256
10
29.25
20
14.2
11
34.25
21
14.2
0
LINE
5
3E
8
0
6
BYLAYER
62
256
10
41.95
20
12.7
11
41.95
21
14.2
0
LINE
5
3F
8
0
6
BYLAYER
62
256
10
46.95
20
12.7
11
46.95
21
14.2
0
LINE
5
40
8
0
6
BYLAYER
62
256
10
41.95
20
14.2
11
46.95
21
14.2
0
LINE
5
41
8
0
6
BYLAYER
62
256
10
54.65
20
12.7
11
54.65
21
14.2
0
LINE
5
42
8
0
6
BYLAYER
62
256
10
59.65
20
12.7
11
59.65
21
14.2
0
LINE
5
43
8
0
6
BYLAYER
62
256
10
54.65
20
14.2
11
59.65
21
14.2
0
LINE
5
44
8
0
6
BYLAYER
62
256
10
67.35
20
12.7
11
67.35
21
14.2
0
LINE
5
45
8
0
6
BYLAYER
62
256
10
72.35
20
12.7
11
72.35
21
14.2
0
LINE
5
46
8
0
6
BYLAYER
62
256
10
67.35
20
14.2
11
72.35
21
14.2
0
LINE
5
47
8
0
6
BYLAYER
62
256
10
80.05
20
12.7
11
80.05
21
14.2
0
LINE
5
48
8
0
6
BYLAYER
62
256
10
85.05
20
12.7
11
85.05
21
14.2
0
LINE
5
49
8
0
6
BYLAYER
62
256
10
80.05
20
14.2
11
85.05
21
14.2
0
LINE
5
4A
8
0
6
BYLAYER
62
256
10
92.75
20
12.7
11
92.75
21
14.2
0
LINE
5
4B
8
0
6
BYLAYER
62
256
10
92.75
20
14.2
11
97.75
21
14.2
0
LINE
5
4C
8
0
6
BYLAYER
62
256
10
8.85
20
25.4
11
8.85
21
26.9
0
LINE
5
4D
8
0
6
BYLAYER
62
256
10
3.85
20
26.9
11
8.85
21
26.9
0
LINE
5
4E
8
0
6
BYLAYER
62
256
10
16.55
20
25.4
11
16.55
21
26.9
0
LINE
5
4F
8
0
6
BYLAYER
62
256
10
21.55
20
25.4
11
21.55
21
26.9
0
LINE
5
50
8
0
6
BYLAYER
62
256
10
16.55
20
26.9
11
21.55
21
26.9
0
LINE
5
51
8
0
6
BYLAYER
62
256
10
29.25
20
25.4
11
29.25
21
26.9
0
LINE
5
52
8
0
6
BYLAYER
62
256
10
34.25
20
25.4
11
34.25
21
26.9
0
LINE
5
53
8
0
6
BYLAYER
62
256
10
29.25
20
26.9
11
34.25
21
26.9
0
LINE
5
54
8
0
6
BYLAYER
62
256
10
41.95
20
25.4
11
41.95
21
26.9
0
LINE
5
55
8
0
6
BYLAYER
62
256
10
46.95
20
25.4
11
46.95
21
26.9
0
LINE
5
56
8
0
6
BYLAYER
62
256
10
41.95
20
26.9
11
46.95
21
26.9
0
LINE
5
57
8
0
6
BYLAYER
62
256
10
54.65
20
25.4
11
54.65
21
26.9
0
LINE
5
58
8
0
6
BYLAYER
62
256
10
59.65
20
25.4
11
59.65
21
26.9
0
LINE
5
59
8
0
6
BYLAYER
62
256
10
54.65
20
26.9
11
59.65
21
26.9
0
LINE
5
5A
8
0
6
BYLAYER
62
256
10
67.35
20
25.4
11
67.35
21
26.9
0
LINE
5
5B
8
0
6
BYLAYER
62
256
10
72.35
20
25.4
11
72.35
21
26.9
0
LINE
5
5C
8
0
6
BYLAYER
62
256
10
67.35
20
26.9
11
72.35
21
26.9
0
LINE
5
5D
8
0
6
BYLAYER
62
256
10
80.05
20
25.4
11
80.05
21
26.9
0
LINE
5
5E
8
0
6
BYLAYER
62
256
10
85.05
20
25.4
11
85.05
21
26.9
0
LINE
5
5F
8
0
6
BYLAYER
62
256
10
80.05
20
26.9
11
85.05
21
26.9
0
LINE
5
60
8
0
6
BYLAYER
62
256
10
92.75
20
25.4
11
92.75
21
26.9
0
LINE
5
61
8
0
6
BYLAYER
62
256
10
92.75
20
26.9
11
97.75
21
26.9
0
LINE
5
62
8
0
6
BYLAYER
62
256
10
8.85
20
38.1
11
8.85
21
39.6
0
LINE
5
63
8
0
6
BYLAYER
62
256
10
3.85
20
39.6
11
8.85
21
39.6
0
LINE
5
64
8
0
6
BYLAYER
62
256
10
16.55
20
38.1
11
16.55
21
39.6
0
LINE
5
65
8
0
6
BYLAYER
62
256
10
21.55
20
38.1
11
21.55
21
39.6
0
LINE
5
66
8
0
6
BYLAYER
62
256
10
16.55
20
39.6
11
21.55
21
39.6
0
LINE
5
67
8
0
6
BYLAYER
62
256
10
29.25
20
38.1
11
29.25
21
39.6
0
LINE
5
68
8
0
6
BYLAYER
62
256
10
34.25
20
38.1
11
34.25
21
39.6
0
LINE
5
69
8
0
6
BYLAYER
62
256
10
29.25
20
39.6
11
34.25
21
39.6
0
LINE
5
6A
8
0
6
BYLAYER
62
256
10
41.95
20
38.1
11
41.95
21
39.6
0
LINE
5
6B
8
0
6
BYLAYER
62
256
10
46.95
20
38.1
11
46.95
21
39.6
0
LINE
5
6C
8
0
6
BYLAYER
62
256
10
41.95
20
39.6
11
46.95
21
39.6
0
LINE
5
6D
8
0
6
BYLAYER
62
256
10
54.65
20
38.1
11
54.65
21
39.6
0
LINE
5
6E
8
0
6
BYLAYER
62
256
10
59.65
20
38.1
11
59.65
21
39.6
0
LINE
5
6F
8
0
6
BYLAYER
62
256
10
54.65
20
39.6
11
59.65
21
39.6
0
LINE
5
70
8
0
6
BYLAYER
62
256
10
67.35
20
38.1
11
67.35
21
39.6
0
LINE
5
71
8
0
6
BYLAYER
62
256
10
72.35
20
38.1
11
72.35
21
39.6
0
LINE
5
72
8
0
6
BYLAYER
62
256
10
67.35
20
39.6
11
72.35
21
39.6
0
LINE
5
73
8
0
6
BYLAYER
62
256
10
80.05
20
38.1
11
80.05
21
39.6
0
LINE
5
74
8
0
6
BYLAYER
62
256
10
85.05
20
38.1
11
85.05
21
39.6
0
LINE
5
75
8
0
6
BYLAYER
62
256
10
80.05
20
39.6
11
85.05
21
39.6
0
LINE
5
76
8
0
6
BYLAYER
62
256
10
92.75
20
38.1
11
92.75
21
39.6
0
LINE
5
77
8
0
6
BYLAYER
62
256
10
92.75
20
39.6
11
97.75
21
39.6
0
LINE
5
78
8
0
6
BYLAYER
62
256
10
8.85
20
50.8
11
8.85
21
52.3
0
LINE
5
79
8
0
6
BYLAYER
62
256
10
3.85
20
52.3
11
8.85
21
52.3
0
LINE
5
7A
8
0
6
BYLAYER
62
256
10
16.55
20
50.8
11
16.55
21
52.3
0
LINE
5
7B
8
0
6
BYLAYER
62
256
10
21.55
20
50.8
11
21.55
21
52.3
0
LINE
5
7C
8
0
6
BYLAYER
62
256
10
16.55
20
52.3
11
21.55
21
52.3
0
LINE
5
7D
8
0
6
BYLAYER
62
256
10
29.25
20
50.8
11
29.25
21
52.3
0
LINE
5
7E
8
0
6
BYLAYER
62
256
10
34.25
20
50.8
11
34.25
21
52.3
0
LINE
5
7F
8
0
6
BYLAYER
62
256
10
29.25
20
52.3
11
34.25
21
52.3
0
LINE
5
80
8
0
6
BYLAYER
62
256
10
41.95
20
50.8
11
41.95
21
52.3
0
LINE
5
81
8
0
6
BYLAYER
62
256
10
46.95
20
50.8
11
46.95
21
52.3
0
LINE
5
82
8
0
6
BYLAYER
62
256
10
41.95
20
52.3
11
46.95
21
52.3
0
LINE
5
83
8
0
6
BYLAYER
62
256
10
54.65
20
50.8
11
54.65
21
52.3
0
LINE
5
84
8
0
6
BYLAYER
62
256
10
59.65
20
50.8
11
59.65
21
52.3
0
LINE
5
85
8
0
6
BYLAYER
62
256
10
54.65
20
52.3
11
59.65
21
52.3
0
LINE
5
86
8
0
6
BYLAYER
62
256
10
67.35
20
50.8
11
67.35
21
52.3
0
LINE
5
87
8
0
6
BYLAYER
62
256
10
72.35
20
50.8
11
72.35
21
52.3
0
LINE
5
88
8
0
6
BYLAYER
62
256
10
67.35
20
52.3
11
72.35
21
52.3
0
LINE
5
89
8
0
6
BYLAYER
62
256
10
80.05
20
50.8
11
80.05
21
52.3
0
LINE
5
8A
8
0
6
BYLAYER
62
256
10
85.05
20
50.8
11
85.05
21
52.3
0
LINE
5
8B
8
0
6
BYLAYER
62
256
10
80.05
20
52.3
11
85.05
21
52.3
0
LINE
5
8C
8
0
6
BYLAYER
62
256
10
92.75
20
50.8
11
92.75
21
52.3
0
LINE
5
8D
8
0
6
BYLAYER
62
256
10
92.75
20
52.3
11
97.75
21
52.3
0
LINE
5
8E
8
0
6
BYLAYER
62
256
10
8.85
20
63.5
11
8.85
21
65
0
LINE
5
8F
8
0
6
BYLAYER
62
256
10
3.85
20
65
11
8.85
21
65
0
LINE
5
90
8
0
6
BYLAYER
62
256
10
16.55
20
63.5
11
16.55
21
65
0
LINE
5
91
8
0
6
BYLAYER
62
256
10
21.55
20
63.5
11
21.55
21
65
0
LINE
5
92
8
0
6
BYLAYER
62
256
10
16.55
20
65
11
21.55
21
65
0
LINE
5
93
8
0
6
BYLAYER
62
256
10
29.25
20
63.5
11
29.25
21
65
0
LINE
5
94
8
0
6
BYLAYER
62
256
10
34.25
20
63.5
11
34.25
21
65
0
LINE
5
95
8
0
6
BYLAYER
62
256
10
29.25
20
65
11
34.25
21
65
0
LINE
5
96
8
0
6
BYLAYER
62
256
10
41.95
20
63.5
11
41.95
21
65
0
LINE
5
97
8
0
6
BYLAYER
62
256
10
46.95
20
63.5
11
46.95
21
65
0
LINE
5
98
8
0
6
BYLAYER
62
256
10
41.95
20
65
11
46.95
21
65
0
LINE
5
99
8
0
6
BYLAYER
62
256
10
54.65
20
63.5
11
54.65
21
65
0
LINE
5
9A
8
0
6
BYLAYER
62
256
10
59.65
20
63.5
11
59.65
21
65
0
LINE
5
9B
8
0
6
BYLAYER
62
256
10
54.65
20
65
11
59.65
21
65
0
LINE
5
9C
8
0
6
BYLAYER
62
256
10
67.35
20
63.5
11
67.35
21
65
0
LINE
5
9D
8
0
6
BYLAYER
62
256
10
72.35
20
63.5
11
72.35
21
65
0
LINE
5
9E
8
0
6
BYLAYER
62
256
10
67.35
20
65
11
72.35
21
65
0
LINE
5
9F
8
0
6
BYLAYER
62
256
10
80.05
20
63.5
11
80.05
21
65
0
LINE
5
A0
8
0
6
BYLAYER
62
256
10
85.05
20
63.5
11
85.05
21
65
0
LINE
5
A1
8
0
6
BYLAYER
62
256
10
80.05
20
65
11
85.05
21
65
0
LINE
5
A2
8
0
6
BYLAYER
62
256
10
92.75
20
63.5
11
92.75
21
65
0
LINE
5
A3
8
0
6
BYLAYER
62
256
10
92.75
20
65
11
97.75
21
65
0
LINE
5
A4
8
0
6
BYLAYER
62
256
10
8.85
20
76.2
11
8.85
21
77.7
0
LINE
5
A5
8
0
6
BYLAYER
62
256
10
3.85
20
77.7
11
8.85
21
77.7
0
LINE
5
A6
8
0
6
BYLAYER
62
256
10
16.55
20
76.2
11
16.55
21
77.7
0
LINE
5
A7
8
0
6
BYLAYER
62
256
10
21.55
20
76.2
11
21.55
21
77.7
0
LINE
5
A8
8
0
6
BYLAYER
62
256
10
16.55
20
77.7
11
21.55
21
77.7
0
LINE
5
A9
8
0
6
BYLAYER
62
256
10
29.25
20
76.2
11
29.25
21
77.7
0
LINE
5
AA
8
0
6
BYLAYER
62
256
10
34.25
20
76.2
11
34.25
21
77.7
0
LINE
5
AB
8
0
6
BYLAYER
62
256
10
29.25
20
77.7
11
34.25
21
77.7
0
LINE
5
AC
8
0
6
BYLAYER
62
256
10
41.95
20
76.2
11
41.95
21
77.7
0
LINE
5
AD
8
0
6
BYLAYER
62
256
10
46.95
20
76.2
11
46.95
21
77.7
0
LINE
5
AE
8
0
6
BYLAYER
62
256
10
41.95
20
77.7
11
46.95
21
77.7
0
LINE
5
AF
8
0
6
BYLAYER
62
256
10
54.65
20
76.2
11
54.65
21
77.7
0
LINE
5
B0
8
0
6
BYLAYER
62
256
10
59.65
20
76.2
11
59.65
21
77.7
0
LINE
5
B1
8
0
6
BYLAYER
62
256
10
54.65
20
77.7
11
59.65
21
77.7
0
LINE
5
B2
8
0
6
BYLAYER
62
256
10
67.35
20
76.2
11
67.35
21
77.7
0
LINE
5
B3
8
0
6
BYLAYER
62
256
10
72.35
20
76.2
11
72.35
21
77.7
0
LINE
5
B4
8
0
6
BYLAYER
62
256
10
67.35
20
77.7
11
72.35
21
77.7
0
LINE
5
B5
8
0
6
BYLAYER
62
256
10
80.05
20
76.2
11
80.05
21
77.7
0
LINE
5
B6
8
0
6
BYLAYER
62
256
10
85.05
20
76.2
11
85.05
21
77.7
0
LINE
5
B7
8
0
6
BYLAYER
62
256
10
80.05
20
77.7
11
85.05
21
77.7
0
LINE
5
B8
8
0
6
BYLAYER
62
256
10
92.75
20
76.2
11
92.75
21
77.7
0
LINE
5
B9
8
0
6
BYLAYER
62
256
10
92.75
20
77.7
11
97.75
21
77.7
0
LINE
5
BA
8
0
6
BYLAYER
62
256
10
8.85
20
88.9
11
8.85
21
90.4
0
LINE
5
BB
8
0
6
BYLAYER
62
256
10
3.85
20
90.4
11
8.85
21
90.4
0
LINE
5
BC
8
0
6
BYLAYER
62
256
10
16.55
20
88.9
11
16.55
21
90.4
0
LINE
5
BD
8
0
6
BYLAYER
62
256
10
21.55
20
88.9
11
21.55
21
90.4
0
LINE
5
BE
8
0
6
BYLAYER
62
256
10
16.55
20
90.4
11
21.55
21
90.4
0
LINE
5
BF
8
0
6
BYLAYER
62
256
10
29.25
20
88.9
11
29.25
21
90.4
0
LINE
5
C0
8
0
6
BYLAYER
62
256
10
34.25
20
88.9
11
34.25
21
90.4
0
LINE
5
C1
8
0
6
BYLAYER
62
256
10
29.25
20
90.4
11
34.25
21
90.4
0
LINE
5
C2
8
0
6
BYLAYER
62
256
10
41.95
20
88.9
11
41.95
21
90.4
0
LINE
5
C3
8
0
6
BYLAYER
62
256
10
46.95
20
88.9
11
46.95
21
90.4
0
LINE
5
C4
8
0
6
BYLAYER
62
256
10
41.95
20
90.4
11
46.95
21
90.4
0
LINE
5
C5
8
0
6
BYLAYER
62
256
10
54.65
20
88.9
11
54.65
21
90.4
0
LINE
5
C6
8
0
6
BYLAYER
62
256
10
59.65
20
88.9
11
59.65
21
90.4
0
LINE
5
C7
8
0
6
BYLAYER
62
256
10
54.65
20
90.4
11
59.65
21
90.4
0
LINE
5
C8
8
0
6
BYLAYER
62
256
10
67.35
20
88.9
11
67.35
21
90.4
0
LINE
5
C9
8
0
6
BYLAYER
62
256
10
72.35
20
88.9
11
72.35
21
90.4
0
LINE
5
CA
8
0
6
BYLAYER
62
256
10
67.35
20
90.4
11
72.35
21
90.4
0
LINE
5
CB
8
0
6
BYLAYER
62
256
10
80.05
20
88.9
11
80.05
21
90.4
0
LINE
5
CC
8
0
6
BYLAYER
62
256
10
85.05
20
88.9
11
85.05
21
90.4
0
LINE
5
CD
8
0
6
BYLAYER
62
256
10
80.05
20
90.4
11
85.05
21
90.4
0
LINE
5
CE
8
0
6
BYLAYER
62
256
10
92.75
20
88.9
11
92.75
21
90.4
0
LINE
5
CF
8
0
6
BYLAYER
62
256
10
92.75
20
90.4
11
97.75
21
90.4
0
LINE
5
D0
8
0
6
BYLAYER
62
256
10
97.75
20
7.7
11
101.6
21
7.7
0
LINE
5
D1
8
0
6
BYLAYER
62
256
10
97.75
20
20.4
11
101.6
21
20.4
0
LINE
5
D2
8
0
6
BYLAYER
62
256
10
97.75
20
33.1
11
101.6
21
33.1
0
LINE
5
D3
8
0
6
BYLAYER
62
256
10
97.75
20
45.8
11
101.6
21
45.8
0
LINE
5
D4
8
0
6
BYLAYER
62
256
10
97.75
20
58.5
11
101.6
21
58.5
0
LINE
5
D5
8
0
6
BYLAYER
62
256
10
97.75
20
71.2
11
101.6
21
71.2
0
LINE
5
D6
8
0
6
BYLAYER
62
256
10
97.75
20
83.9
11
101.6
21
83.9
0
LINE
5
D7
8
0
6
BYLAYER
62
256
10
97.75
20
83.9
11
97.75
21
90.4
0
LINE
5
D8
8
0
6
BYLAYER
62
256
10
97.75
20
71.2
11
97.75
21
77.7
0
LINE
5
D9
8
0
6
BYLAYER
62
256
10
97.75
20
58.5
11
97.75
21
65
0
LINE
5
DA
8
0
6
BYLAYER
62
256
10
97.75
20
45.8
11
97.75
21
52.3
0
LINE
5
DB
8
0
6
BYLAYER
62
256
10
97.75
20
33.1
11
97.75
21
39.6
0
LINE
5
DC
8
0
6
BYLAYER
62
256
10
97.75
20
20.4
11
97.75
21
26.9
0
LINE
5
DD
8
0
6
BYLAYER
62
256
10
97.75
20
7.7
11
97.75
21
14.2
0
LINE
5
DE
8
0
6
BYLAYER
62
256
10
3.85
20
12.7
11
97.75
21
12.7
0
LINE
5
DF
8
0
6
BYLAYER
62
256
10
3.85
20
25.4
11
97.75
21
25.4
0
LINE
5
E0
8
0
6
BYLAYER
62
256
10
3.85
20
38.1
11
97.75
21
38.1
0
LINE
5
E1
8
0
6
BYLAYER
62
256
10
3.85
20
50.8
11
97.75
21
50.8
0
LINE
5
E2
8
0
6
BYLAYER
62
256
10
3.85
20
63.5
11
97.75
21
63.5
0
LINE
5
E3
8
0
6
BYLAYER
62
256
10
3.85
20
76.2
11
97.75
21
76.2
0
LINE
5
E4
8
0
6
BYLAYER
62
256
10
3.85
20
88.9
11
97.75
21
88.9
0
LINE
5
E5
8
0
6
BYLAYER
62
256
10
7.77650717459e-16
20
7.7
11
3.85
21
7.7
0
LINE
5
E6
8
0
6
BYLAYER
62
256
10
1.55530143492e-15
20
20.4
11
3.85
21
20.4
0
LINE
5
E7
8
0
6
BYLAYER
62
256
10
2.33295215238e-15
20
33.1
11
3.85
21
33.1
0
LINE
5
E8
8
0
6
BYLAYER
62
256
10
3.11060286983e-15
20
45.8
11
3.85
21
45.8
0
LINE
5
E9
8
0
6
BYLAYER
62
256
10
3.88825358729e-15
20
58.5
11
3.85
21
58.5
0
LINE
5
EA
8
0
6
BYLAYER
62
256
10
4.66590430475e-15
20
71.2
11
3.85
21
71.2
0
LINE
5
EB
8
0
6
BYLAYER
62
256
10
5.44355502221e-15
20
83.9
11
3.85
21
83.9
0
LINE
5
EC
8
0
6
BYLAYER
62
256
10
3.85
20
83.9
11
3.85
21
90.4
0
LINE
5
ED
8
0
6
BYLAYER
62
256
10
3.85
20
71.2
11
3.85
21
77.7
0
LINE
5
EE
8
0
6
BYLAYER
62
256
10
3.85
20
58.5
11
3.85
21
65
0
LINE
5
EF
8
0
6
BYLAYER
62
256
10
3.85
20
45.8
11
3.85
21
52.3
0
LINE
5
F0
8
0
6
BYLAYER
62
256
10
3.85
20
33.1
11
3.85
21
39.6
0
LINE
5
F1
8
0
6
BYLAYER
62
256
10
3.85
20
20.4
11
3.85
21
26.9
0
LINE
5
F2
8
0
6
BYLAYER
62
256
10
3.85
20
7.7
11
3.85
21
14.2
0
ENDSEC
0
EOF
